<svg xmlns="http://www.w3.org/2000/svg" fill-rule="evenodd" stroke-linejoin="round" stroke-miterlimit="2" clip-rule="evenodd" viewBox="0 0 4921 4921">
  <defs/>
  <path fill-rule="nonzero" d="M2165.002 3442.086l220.417 354.584 2.083-353.334 2.083-353.75 109.584-1.25 109.166-.834v1062.501l-117.5-.833-117.5-1.25-218.75-352.917c-120.417-194.167-220.417-352.917-222.083-353.334-2.084 0-3.334 159.167-3.334 354.167v354.167h-216.667v-1062.5h231.667l220.834 354.583zM2950.002 3087.502v175h-212.5v-175h212.5zM3472.92 3362.503c55.833 5.833 99.166 18.333 147.916 42.083 37.5 18.75 48.75 26.667 79.167 57.5 24.583 24.583 40.417 45 50.833 65 16.25 30.834 31.25 80 33.334 108.334l1.25 16.666-102.917 1.25-102.917.834-4.583-17.5c-18.333-72.917-63.75-110.417-140-115-106.667-6.25-173.334 66.666-189.167 205.833-7.5 70.417 7.083 155 35.417 204.167 43.333 74.583 136.25 100 217.5 60 40.833-20.417 67.5-57.084 81.667-112.5l5.833-22.917h203.333l-1.25 12.5c-.833 6.667-5 26.25-9.583 42.917-42.083 158.333-160.833 249.167-335.417 257.917-257.917 12.5-430.834-172.084-409.584-438.334 12.5-155.833 84.584-272.084 205.834-331.25 69.583-34.167 147.917-46.667 233.333-37.5zM4343.753 3370.836c135 34.583 226.25 131.667 264.584 281.25 9.583 37.5 19.167 136.667 15 153.75l-2.5 10.834H4066.67l.825-136.496 344.884.966c-18.75-97.166-70.709-158.12-177.459-159.287-85.938 1.2-141.492 57.125-167.425 158.32l-.825 136.497 2.5 19.583c10 82.5 45.417 139.167 100.417 159.584 34.166 12.5 82.5 17.916 116.666 12.5 54.584-8.75 115.417-47.5 130.417-82.917l5-12.917h187.084l-2.5 9.167c-6.667 23.333-45.417 95.417-64.584 120.833-63.333 83.334-165.833 128.334-292.083 128.334-146.25 0-265.834-62.084-333.334-173.334-33.75-55-50.417-109.167-57.5-186.25-22.5-235.417 124.167-426.25 345-448.75 42.5-4.584 104.167-.834 140 8.333zM2950.002 3379.17v770.833h-212.5v-382.5c0-210.417 1.25-384.167 2.917-385.417 1.25-1.667 49.167-2.917 106.25-2.917h103.333z"/>
</svg>
