<svg xmlns="http://www.w3.org/2000/svg" version="1.0" viewBox="0 0 1181 1181">
  <defs/>
  <path d="M1 590.5V1180h1179V1H1v589.5zm518.6 235.6l52.9 85.1.5-84.8.5-84.9 26.3-.3 26.2-.2v255l-28.2-.2-28.2-.3-52.5-84.7a4527 4527 0 00-53.3-84.8c-.5 0-.8 38.2-.8 85v85h-52V741h55.6l53 85.1zM708 762v21h-51v-42h51v21zm125.5 45a99.5 99.5 0 0135.5 10.1c9 4.5 11.7 6.4 19 13.8a65 65 0 0112.2 15.6 80.7 80.7 0 018 26l.3 4-24.7.3-24.7.2-1.1-4.2c-4.4-17.5-15.3-26.5-33.6-27.6-25.6-1.5-41.6 16-45.4 49.4a89.7 89.7 0 008.5 49 39.2 39.2 0 0052.2 14.4c9.8-4.9 16.2-13.7 19.6-27l1.4-5.5h48.8l-.3 3c-.2 1.6-1.2 6.3-2.3 10.3-10.1 38-38.6 59.8-80.5 61.9-61.9 3-103.4-41.3-98.3-105.2 3-37.4 20.3-65.3 49.4-79.5a100.6 100.6 0 0156-9zm209 2c32.4 8.3 54.3 31.6 63.5 67.5 2.3 9 4.6 32.8 3.6 36.9l-.6 2.6H976l.6 4.7c2.4 19.8 10.9 33.4 24.1 38.3 8.2 3 19.8 4.3 28 3 13.1-2.1 27.7-11.4 31.3-19.9l1.2-3.1h44.9l-.6 2.2a149.7 149.7 0 01-15.5 29c-15.2 20-39.8 30.8-70.1 30.8-35.1 0-63.8-14.9-80-41.6a96.2 96.2 0 01-13.8-44.7c-5.4-56.5 29.8-102.3 82.8-107.7a112 112 0 0133.6 2zM708 903.5V996h-51v-91.8c0-50.5.3-92.2.7-92.5.3-.4 11.8-.7 25.5-.7H708v92.5z"/>
  <path d="M1005 846.5c-3 .9-7.3 2.7-9.5 4a41.2 41.2 0 00-18 26.1c-.4 2.2-.9 4.7-1.2 5.6-.4 1.7 2 1.8 40.7 1.8h41.2l-.7-4.3c-2.6-15.3-11-27.2-23-32.3a66 66 0 00-29.5-.9z"/>
</svg>
