<svg xmlns="http://www.w3.org/2000/svg" version="1.0" viewBox="0 0 344 344">
  <defs/>
  <path d="M245.2 15.2c-8.1 1.8-10.6 5.5-42.7 61.6-28.1 49.1-29.9 52.7-30.3 58-.5 7.9 3.4 15.4 10.3 19.7l4.8 3 60.1.3c41.9.2 61.7 0 65.3-.8 7.1-1.5 13.6-7.3 15.8-14.1 2-5.9 1.5-11-1.7-17.2-3.2-6.3-56.8-99.8-59-102.9-4.3-6.2-14.3-9.6-22.6-7.6zm10.3 37.3l2.5 2.4V79c0 22.7-.1 24.1-2 26-2.4 2.4-7.7 2.6-10.2.3-1.6-1.5-1.8-3.7-1.8-26.4V54.1l2.6-2c3.5-2.7 5.9-2.6 8.9.4zm1.2 69.9c2.2 1.9 2.8 3.2 2.8 6.6 0 8.2-8.8 11.9-14.6 6.1-2-2-2.9-3.9-2.9-6.1 0-2.2.9-4.1 2.9-6.1 3.7-3.6 7.9-3.8 11.8-.5z"/>
  <path d="M66.1 51.1C54.6 53.3 42.9 61.5 36 72.2c-7.2 11.1-7.1 9.9-6.8 87.8l.3 69.5 2.3 5.8c4.8 11.8 15.4 22.3 27 26.8 4.1 1.6 8.7 2.3 16.5 2.7l10.7.5v21.3c0 12.6.4 22.4 1.1 24.1 1.3 3.4 5.5 8 9.1 9.9 3.2 1.7 12.1 1.8 15.1.3 1.2-.6 18.6-13.4 38.7-28.5l36.6-27.3 46.4-.3c46-.3 46.6-.3 52.3-2.6 11.7-4.8 22.1-15.2 26.9-27 2.2-5.4 2.3-7.1 2.6-34.7l.3-29-10.5.3-10.5.3-.3 26.7c-.3 25.1-.4 26.9-2.5 30.7-2.8 5.2-7.8 9.9-12.8 12.2-3.6 1.6-8.6 1.8-52 2.3-27.5.3-48.6.9-49.5 1.4-.8.6-16.7 12.4-35.2 26.3L108 297v-20.2c-.1-22.7-.7-27.3-4.5-30.6-2.4-2-3.5-2.2-16.4-2.2-9.5 0-15.3-.5-19-1.6-6.1-1.8-12.3-6.9-15.4-12.8-2.2-4.1-2.2-4.5-2.5-69.5-.3-72-.3-71.9 5.8-79.3 1.6-2 5.3-4.8 8.2-6.2l5.2-2.6h119.4l6.1-10.6c3.4-5.8 6.1-10.8 6.1-11 0-.8-130.7-.2-134.9.7z"/>
</svg>
