<svg height="512" viewBox="0 0 64 64" width="512" xmlns="http://www.w3.org/2000/svg"><g id="Outline"><path d="m28.539 16.634a1 1 0 0 0 .7 1.873 7.847 7.847 0 0 1 5.518 0 1 1 0 0 0 .7-1.873 9.869 9.869 0 0 0 -6.918 0z"/><path d="m37.979 14.471a1 1 0 0 0 .462-1.888 14 14 0 0 0 -12.881 0 1 1 0 1 0 .92 1.776 12 12 0 0 1 11.04 0 1 1 0 0 0 .459.112z"/><path d="m41.309 8.605a17.888 17.888 0 0 0 -18.618 0 1 1 0 0 0 1.038 1.711 15.892 15.892 0 0 1 16.542 0 1 1 0 1 0 1.038-1.711z"/><path d="m11 17.008a4 4 0 1 0 -4 4 4 4 0 0 0 4-4zm-4 2a2 2 0 1 1 2-2 2 2 0 0 1 -2 2z"/><path d="m61 17.008a4 4 0 1 0 -4 4 4 4 0 0 0 4-4zm-4 2a2 2 0 1 1 2-2 2 2 0 0 1 -2 2z"/><path d="m50 39.008a1 1 0 0 0 -1-1h-10a1 1 0 0 0 -.707 1.707l3 3a1 1 0 0 0 1.414-1.415l-1.293-1.293h7.586a1 1 0 0 0 1-.999z"/><path d="m38 35.008a1 1 0 0 0 1 1h10a1 1 0 0 0 .707-1.707l-3-3a1 1 0 0 0 -1.414 1.414l1.293 1.293h-7.586a1 1 0 0 0 -1 1z"/><path d="m61 56.008v-34a1 1 0 0 0 -1-1h-6a1 1 0 0 0 -1 1v34h-42v-8h2v5a1 1 0 0 0 1 1h4a1 1 0 0 0 1-1v-5h2v5a1 1 0 0 0 1 1h4a1 1 0 0 0 1-1v-5h2v5a1 1 0 0 0 1 1h4a1 1 0 0 0 1-1v-29a3 3 0 1 0 -6 0v3h-2v-3a3 3 0 1 0 -6 0v3h-2v-3a3 3 0 1 0 -6 0v3h-2v-5a1 1 0 0 0 -1-1h-6a1 1 0 0 0 -1 1v34a1 1 0 0 0 0 2h58a1 1 0 0 0 0-2zm-30-32a1 1 0 1 1 2 0v28h-2zm-4 5h2v2h-2zm0 4h2v9h-2zm0 11h2v2h-2zm-4-20a1 1 0 1 1 2 0v28h-2zm-4 5h2v2h-2zm0 4h2v9h-2zm0 11h2v2h-2zm-4-20a1 1 0 1 1 2 0v28h-2zm-4 5h2v2h-2zm0 4h2v9h-2zm0 11h2v2h-2zm-2 12h-4v-33h4zm50 0h-4v-33h4z"/></g></svg>