<svg xmlns="http://www.w3.org/2000/svg" fill-rule="evenodd" stroke-linecap="round" stroke-linejoin="round" stroke-miterlimit="500" clip-rule="evenodd" viewBox="0 0 4871 4875">
  <defs/>
  <path fill="none" d="M0 .004h4867.296v4872.893H0z"/>
  <path fill="none" stroke="#000" stroke-width="3.84" d="M-77.157 99.515s-1.713-4.142-4.373-12.242c-5.732-17.454-10.212-51.841-20.966-113.216-47.935 2.915-101.185 16.077-105.245 20.134-4.052 4.051-6.381 105.095-6.381 105.095s107.959.209 136.965.229z" transform="matrix(17.36114 0 0 17.36116 4307.337 1096.164)"/>
  <path stroke="#000" stroke-width=".68" d="M-.178 147.15S-2.434-12.5-2.434-16.745c0-4.252 1.218-6.685-5.461-8.51-6.686-1.82-34.403-6-89.733-2.508 6.194 27.035 11.534 72.23 19.756 107.377 1.546 6.608 3.611 15.942 7.905 20.642 4.832 5.29 8.152 9.642 16.576 15.735 12.614 9.123 31.067 18.987 53.213 31.159z" transform="matrix(17.36114 0 0 17.36116 4307.337 1096.164)"/>
  <path fill="none" stroke="#000" stroke-width="3.84" d="M.076 152.518s-5.432-2.446-27.381-14.389c-12.949-7.046-38.93-22.165-43.513-30.863-48.738.106-143.565.242-143.565.242l-2.947 61.686c46.525-.642 93.15-1.814 139.189-1.186 26.584.363 52.306.725 78.637 1.493l-.42-16.983z" transform="matrix(17.36114 0 0 17.36116 4307.337 1096.164)"/>
  <path fill-rule="nonzero" stroke="#000" stroke-width=".34" d="M0 22.112S.342 11.885 0 8.281c-.341-3.598-1.366-3.598-4.451-4.317-3.079-.715-96.186-2.644-118.777-2.644-22.59 0-106.453.845-116.379 1.563 0 0-12.982.083-14.803 1.352-1.822 1.28-3.037 3.832-3.037 5.754v11.486L0 22.112z" transform="matrix(17.36114 0 0 17.36116 4686.92 4075.15)"/>
</svg>
