<svg xmlns="http://www.w3.org/2000/svg" fill-rule="evenodd" stroke-miterlimit="10" clip-rule="evenodd" viewBox="0 0 86 67">
  <defs/>
  <g transform="matrix(.24 0 0 .24 -363.5 -223)">
    <path fill="none" d="M1514.4 929.1h356.5v275h-356.5z"/>
    <clipPath id="a">
      <path d="M1514.4 929.1h356.5v275h-356.5z"/>
    </clipPath>
    <g clip-path="url(#a)">
      <path fill="none" stroke="#202020" stroke-width="1.666668" d="M1391.2 923.5h991.7M1391.2 1211.3h991.7"/>
      <path fill="#e6e6e6" fill-rule="nonzero" d="M1684.6 1039.7a14.5 14.5 0 10-29.1 0 14.5 14.5 0 0029 0M1726 1039.7a14.5 14.5 0 10-29.2 0 14.5 14.5 0 0029.1 0M1841.5 1150.4l-11.5.3-2.1-65.2-4.7-5.3-175 1.6-2-2.1-88.5.8-4.4 6-2 64.2h-9c-7.1 0-13-10.7-13-17.8l-.7-75.4 7.4 5.4 111.6.2v18.7h86.2l-.4-18.6 110.7.1 8.4-6.2-.8 73.2c0 8.6-1.7 20.1-10.3 20.1"/>
      <path fill="#b4b4b4" d="M1609.1 1015h-16.7v20.8h16.7zM1635.7 1015h-16.6v20.8h16.6zM1789.7 1015.9h-43.3v31.2h43.3z"/>
      <path fill="none" stroke="#000" stroke-linecap="round" stroke-linejoin="round" stroke-width="2.083335" d="M1769.3 1016.6l-.1-1.2m-1 0l-.1 1.2m-239.2 36.8l.3 2 .7 1.9 1 1.7 1.5 1.6 1.8 1.2 2 1 2.3.5 2.2.2m300 0h-106.2m-87 0h-106.8m311.8-10l-.3 1.9-.7 1.9-1 1.7-1.6 1.6-1.7 1.2-2 1-2.3.5-2.2.2m-12.3 24.9l1.6 59.2m-11-68.4l1.4.1 1.4.3 1.4.6 1.2.7 1.2 1 1 1 .7 1.3.6 1.3.4 1.4.1 1.5m-92.8-9.2h83.4m-256.6 0l-1.4.1-1.4.3-1.4.6-1.2.7-1.2 1-1 1-.7 1.3-.6 1.3-.4 1.4-.1 1.5m0 0l-1.6 59.2m86.5-68.4h8m-83.5 0h28.2m2.3 0h25m2.2 0h11.1m-68.8 0v.6m256.6-.6v.6m-267.6 70.9V1147.6m278.6 0v3.1"/>
      <path fill="none" stroke="#000" stroke-linecap="round" stroke-linejoin="round" stroke-width="2.9166689999999997" d="M1714.1 1053.3h0M1853 1019v-3.6m-226.5.6h-.6l-.4.1h-.3l-.3.2h-.3l-.3.2-.3.1m7 0l-.3-.1-.3-.1-.3-.1-.3-.1h-.3l-.4-.1h-.6m-29.1 0h-1.3l-.4.2h-.3l-.3.2-.3.1m7 0l-.2-.1-.3-.1-.3-.1-.4-.1h-.3l-.3-.1h-.7m22.7 19.4l.3.2h.3l.3.2h.3l.3.1h.4l.3.1h.3m2 0h1l.3-.1.3-.1.3-.1.3-.1.4-.2m-34.3 0l.3.2h.3l.3.2h.4l.3.1h.3l.3.1h.4m2 0H1602.2l.3-.1.4-.1.3-.1.3-.1.3-.2m14.8-20v13.5m18-6.8h-.7m.8-6.8v1.2m-.8 4.8l.6.5m44.7 9.7l1.3 2.2.8 2.4.4 2.5v2.5l-.5 2.5-1 2.3-1.3 2.2-1.7 1.8-2 1.5-2.3 1.1-2.5.7-2.5.3-2.5-.3-2.4-.7-2.3-1m18.5-20l-18.5 20m18.5-20l-.4-.5-.5-.5-.4-.5-.5-.5-.6-.5-.5-.4-.6-.4-.5-.4m-18.5 19.9l-1.3-2.2-.9-2.4-.4-2.5v-2.5l.6-2.5 1-2.3 1.3-2.2 1.7-1.8 2-1.5 2.3-1.1 2.4-.7 2.5-.2 2.6.2 2.4.7 2.3 1.1m-18.5 19.9l.4.5.4.5.5.6.5.4.5.5.6.4.5.4.6.4m1 .6l1.5.6 2.3.6 2.4.3 2.4-.3 2.4-.6 2.2-1 2-1.4 1.6-1.7 1.4-2 1-2.2.7-2.3.2-2.4-.2-2.4-.7-2.3-1-2.2-1.4-2-1.7-1.7-2-1.4-.7-.4m1 .6l-18.4 19.9m0 0l18.5-19.9m56.5-13.7v67.6m0-5.6v5.6m0-5.6v-14.1m0 0v-44.4m0 0v-3.5m-86.2 47.9h86.2m-86.2-44.4v44.4m7.3-22.4l.2-2.5.6-2.4 1-2.3 1.4-2 1.7-2 2-1.5 2.1-1.2 2.4-.8 2.5-.4h2.5l2.4.4 2.4.8 2.2 1.2 2 1.6 1.7 1.8 1.3 2.1 1 2.3.7 2.4.2 2.5-.2 2.5-.6 2.4-1 2.3-1.4 2.1-1.7 1.8-2 1.6-2.2 1.2-2.4.8-2.4.4h-2.5l-2.5-.4-2.4-.8-2.2-1.2-2-1.6-1.6-1.8-1.4-2-1-2.4-.6-2.4-.2-2.5m41.3 0l.2-2.5.6-2.4 1-2.3 1.4-2 1.7-2 2-1.5 2.2-1.2 2.4-.8 2.4-.4h2.5l2.5.4 2.4.8 2.1 1.2 2 1.6 1.7 1.8 1.4 2.1 1 2.3.6 2.4.2 2.5-.2 2.5-.6 2.4-1 2.3-1.4 2.1-1.7 1.8-2 1.6-2.1 1.2-2.4.8-2.5.4h-2.5l-2.4-.4-2.4-.8-2.2-1.2-2-1.6-1.7-1.8-1.3-2-1-2.4-.7-2.4-.2-2.5m37.6 36.5h-86.2m0 0v-14.1m53.2-11.5h.1l.3.3h0v.1m0 0l-.6-.7m-.6-.6h0l.4.4 1.4 1.4 2.4 1.6.4.1m16.9-24.8l1 1 .2.3m-4.6-3.5l-2.7-1-3-.6h-1l-3.3.3-2.9 1-2.5 1.4-1.2.9-.8.8-.7.7h0m.7-.7h0l.6-.6m0 0h0l-.4.3v.1m0 0l-1.8 2-1.4 2.4-1 2.5-.4 2.7v2.7l.5 2.6.9 2.5 1.4 2.3 1.7 2m-53.2-32.8v-3.5m11.9 36.4h.1l.3.3v.1m0 0l-.7-.7m-.5-.6h0l.3.4 1.5 1.4 2.4 1.6.4.1m16.8-24.8l1 1 .3.3m-4.6-3.5l-2.7-1-3.1-.6h-1l-3.2.3-3 1-2.4 1.4-1.2.9-.9.8-.6.7h0m.6-.7h0l.6-.6m0 0h0l-.3.3h0l-.1.1m0 0l-1.8 2-1.3 2.4-1 2.5-.5 2.7v2.7l.5 2.6 1 2.5 1.3 2.3 1.8 2m-12 31.3h86.3m-86.2-5.6v5.6m86.2 0h-5.7m-33.5 0h-7.8m-33.5 0h-5.7m46.3 0h.7m33.5 0h.7m0 0h-35m-41.2 0h.7m33.5 0h.7m0 0h-35m69.4-53v2m0 17.9v1.9m-21 0v-2m0-17.9v-1.9m-20.3 0v2m0 17.9v1.9m-21.1 0v-2m0-17.9v-1.9m85-12.3h1.1m-1.2 0v-1m1.2 1h-1.2m.6 0h.6m-.6.1v-.1m-30.9 9.6l2.4.8 2.3 1.1 2 1.6 1.7 1.8 1.3 2.2.9 2.4.5 2.4v2.6l-.5 2.5-1 2.3-1.2 2.2-1.7 1.9-2 1.5-2.3 1.2-2.4.7m0-27.2v27.2m-9-1.2l1.5.6 2.4.6 2.4.3 2.4-.3 2.3-.6 2.2-1 2-1.4 1.7-1.7 1.4-2 1-2.2.6-2.3.2-2.4-.2-2.4-.6-2.3-1-2.2-1.4-2-1.7-1.7-2-1.4-.7-.4m-9-1.2h.7l.7-.2H1712.7l.7.1.7.1m-5.5 0l-2.4.8-2.2 1.1-2 1.6-1.7 1.8-1.4 2.2-.9 2.4-.4 2.4v2.6l.4 2.5 1 2.3 1.3 2.2 1.7 1.9 2 1.5 2.2 1.2 2.4.7m5.5 0l-.7.1h-.7l-.6.1H1710l-.7-.1-.7-.1m0 0V1026m0 27.2V1026m-75.1 9.4h.4l.5-.2.4-.2.3-.3.3-.3.2-.4.2-.5v-.4m-14.2 2.3h11.9m-14.3-2.3v.4l.2.5.2.4.3.3.4.3.4.2.4.2h.5m-2.7-18.9h17.2m-.3 16.6l.3-16.6m-17 16.6l-.2-16.6m-26.9 16.6v.4l.2.5.2.4.3.3.4.3.4.2.4.2h.5m14.6-18.9h-17.3m14.6 19l.5-.1.4-.2.4-.2.4-.3.2-.3.3-.4.1-.5v-.4m-2.3 2.3h-12m14.4-2.3l.3-16.6m-17 16.6l-.3-16.6m156.1 25.5l.2 1.2.3 1 .6 1 .7 1 1 .6 1 .6 1 .3 1.2.1m-6-5.8l-.4-25.5m0 0h42.5m0 0l-.4 25.5m-6 5.8l1.2-.1 1-.3 1.1-.6.9-.7.7-.9.6-1 .3-1 .2-1.2m-6 5.8h-29.7m21.3-32.5v1.2m-13 0l.1-1.2m-135.7.6h2m-29.1 0h2m7.2 19v-1.8m-16.5 1.8v-1.8m43.7 1.8v-1.8m-16.6 1.8v-1.8m126.4-16.6h1.8m-1.8-1.2v1.2m-136.6 0v-1.2m-17.3 1.2v-1.2m44.4 1.2v-1.2m-17.2 1.2v-1.2m-10.2 14.2h.6m9.2 0h.6m16.8 0h.6m109.6 12.5l-.5-25.5m0 0h-9.2m-145 16.6l-.3-16.6m3.3 19.5h-.6l-.5-.2-.5-.3-.5-.3-.4-.5-.2-.5-.2-.5v-.6m14.8 2.9h-12m15-2.9l-.1.6-.2.5-.3.5-.3.5-.5.3-.5.3-.5.2h-.6m3.2-17.1l-.2 14.2m9.3 0l-.2-14.2m3.2 17.1h-.6l-.6-.2-.5-.3-.4-.3-.4-.5-.3-.5-.1-.5-.1-.6m14.9 2.9h-12m15-2.9l-.1.6-.2.5-.3.5-.4.5-.4.3-.5.3-.6.2h-.5m3.2-19.5l-.3 16.6m8.6-16.6h-8.3m155-1.2l-.5 26.7m61.9-23.1l-.6 34.4m-324.2-34.4l.6 34.4m217.2-11.3l.1 1.5.5 1.4.7 1.3 1 1.2 1.1 1 1.3.6 1.5.4 1.5.2m0 0h29.7m0 0l1.5-.2 1.5-.4 1.3-.7 1.1-1 1-1 .7-1.4.5-1.4.1-1.5m61.3 11.3l-1.5 84.1m-322-84.1l1.4 84.1m79.1-118.5v-3.6m8.8 0V1019h0m126-3.5v1.2m-107.3-1.2v1.2m-108.7 2.4v-3.6m64.6 64.3h-2.2m228.3.1h-83.4m-89.8 0h-8m-3.2 0H1620m18.4 0h-76m56-50.8h.6m-10.4 0h.6m35.7-12.4h2.6m86.2 0h2.6m-90.6 63.2h1.8m86.2 0h1.8m115.4 59.3l-.3 2.2-.7 2.2-1 2-1.6 1.8-1.7 1.4-2 1-2.3.8-2.2.2m11.8-13.2V1139.1m-320.6 0l.3 2.2.7 2.2 1 2 1.6 1.8 1.7 1.4 2 1 2.3.8 2.2.2m-11.8-13.2V1139.1m11.8 11.6h9.2m287.8 0h-9.2m-9.4 0h9.4m-278.6 0h9.4m259.8 0H1779m0 0l-2.3.2-2.2.6-2 1.1-1.8 1.4-1.4 1.8-1.1 2-.8 2.1-.2 2.3m-153 0l-.3-2.3-.7-2.1-1-2-1.5-1.8-1.8-1.4-2-1-2.2-.7-2.3-.2m0 0h-41.6m206.4 11.5l-.5 19.5m-152 0l-.5-19.5m152.5 19.5l-.3 2.3-.7 2.1-1.1 2-1.5 1.7-1.8 1.5-2 1-2.2.7-2.2.2m-128.4 0l-2.2-.2-2.2-.7-2-1-1.8-1.5-1.5-1.7-1-2-.8-2.1-.3-2.3m140.2 11.5h-128.4m-17-175.4h-.6m-17 12.4h-.5m249.9-14.8H1734m-86.4-1.2h86.2m-87 1.2H1540m313 0h-11.8m10.6-66.8l1.2 66.8m-324.8 0h11.8m-10.6-66.8l-1.2 66.8m13-73.8h-4.7m-7.1 7l.2-1.4.4-1.3.6-1.2 1-1 1-1 1.2-.6 1.3-.3 1.4-.2m303.5 0h4.7m7.1 7l-.2-1.4-.4-1.3-.6-1.2-1-1-1-1-1.2-.6-1.3-.3-1.4-.2m-303.5 0h298.8"/>
      <path fill="none" stroke="#000" stroke-linecap="square" stroke-width="3.333336" d="M1836.3 977h-27.5l-40.1 56.2"/>
      <path fill-rule="nonzero" d="M1810.2 964.4l3-.3c0 1.2.4 2.2 1 3 .4.7 1.2 1.3 2.3 1.8 1 .5 2.3.7 3.7.7 1.2 0 2.3-.2 3.2-.5.9-.4 1.6-.9 2-1.5.5-.6.7-1.3.7-2a3 3 0 00-.6-2c-.5-.6-1.2-1-2.2-1.4-.6-.3-2-.7-4.2-1.2s-3.8-1-4.6-1.5c-1.2-.6-2-1.3-2.6-2.2-.5-.9-.8-1.9-.8-3 0-1.2.3-2.3 1-3.3s1.7-1.9 3-2.4c1.3-.6 2.8-.8 4.4-.8 1.7 0 3.3.3 4.7.8a6.8 6.8 0 014.2 6.3l-3 .2a4.8 4.8 0 00-1.6-3.4c-1-.8-2.4-1.2-4.2-1.2-2 0-3.3.4-4.2 1.1-.8.7-1.3 1.5-1.3 2.5s.3 1.6 1 2.1c.6.6 2.1 1.2 4.7 1.7a34 34 0 015.3 1.6c1.4.6 2.4 1.4 3 2.4a6 6 0 011 3.4c0 1.3-.3 2.5-1 3.6-.8 1.1-1.8 2-3.2 2.6a13.7 13.7 0 01-10 0 7.6 7.6 0 01-3.4-2.8 8 8 0 01-1.3-4.3z"/>
      <path fill-rule="nonzero" d="M1837.5 972h-3v-18.6a17.5 17.5 0 01-5.9 3.5l.1-2.8c1.7-.8 3-1.7 4.3-2.8 1.3-1.1 2.1-2.2 2.6-3.2h2v24z"/>
    </g>
  </g>
</svg>
